# xmcd CD database file
#
# Track frame offsets:
#	150
#	17988
#	31215
#	51237
#	69683
#	86623
#	101439
#	116618
#	131575
#	147778
#	166117
#	182993
#	203348
#	224165
#	240445
#
# Disc length: 3486 seconds
#
# Revision: 0
# Processed by: cddbd v1.5.2PL0 Copyright (c) Steve Scherf et al.
# Submitted via: CDex 1.70beta2
#
DISCID=d20d9c0f
DTITLE=Various Artist - Salsa mania 2 - CD 2
DYEAR=1900
DGENRE=Salsa
TTITLE0=Domingo - Sin explicación
TTITLE1=Tres con Kaché - Pobre de él
TTITLE2=Joe King - Como tú
TTITLE3=Johnny Ray - Ya lo sé
TTITLE4=Rey Ruiz - Ya ves quien soy
TTITLE5=Willie Rosario - Esperando llamada
TTITLE6=Pete "El Conde" Rodríguez - Tus ojos negros
TTITLE7=David Pabón - Desesperado
TTITLE8=Willy González - Sensualmente tuyo
TTITLE9=Primi Cruz - Por fin te tengo
TTITLE10=Roberto  Roena - Regreso
TTITLE11=Paquito Guzmán - Directo al corazón
TTITLE12=Nite and Day - Si Tu No Estás
TTITLE13=Tito Rojas - Llegó
TTITLE14=Puerto rican Power - Pena de amor
EXTD=
EXTT0=
EXTT1=
EXTT2=
EXTT3=
EXTT4=
EXTT5=
EXTT6=
EXTT7=
EXTT8=
EXTT9=
EXTT10=
EXTT11=
EXTT12=
EXTT13=
EXTT14=
PLAYORDER=
